<?xml version="1.0" standalone="no"?>
<!DOCTYPE svg PUBLIC "-//W3C//DTD SVG 20010904//EN"
 "http://www.w3.org/TR/2001/REC-SVG-20010904/DTD/svg10.dtd">
<svg version="1.0" xmlns="http://www.w3.org/2000/svg"
 width="1920.000000pt" height="1920.000000pt" viewBox="0 0 1920.000000 1920.000000"
 preserveAspectRatio="xMidYMid meet">
<metadata>
Created by potrace 1.14, written by Peter Selinger 2001-2017
</metadata>
<g transform="translate(0.000000,1920.000000) scale(0.100000,-0.100000)"
fill="#000000" stroke="none">
<path d="M4497 12484 c-3 -3 -38 -7 -78 -9 -88 -5 -172 -13 -217 -19 -83 -13
-110 -17 -132 -21 -99 -19 -144 -29 -210 -47 -41 -11 -79 -21 -85 -22 -20 -4
-181 -59 -220 -76 -35 -15 -54 -22 -83 -32 -64 -22 -380 -203 -431 -247 -13
-12 -28 -21 -32 -21 -4 0 -14 -6 -21 -12 -7 -7 -38 -33 -68 -58 -55 -44 -110
-94 -179 -160 -33 -31 -73 -75 -170 -185 -135 -152 -330 -488 -426 -730 -15
-38 -31 -79 -36 -90 -10 -22 -67 -206 -74 -239 -2 -12 -10 -41 -16 -66 -6 -25
-13 -54 -14 -65 -2 -11 -8 -40 -13 -65 -6 -25 -13 -63 -16 -85 -4 -23 -8 -50
-10 -61 -11 -55 -23 -171 -33 -319 -12 -175 -5 -594 12 -720 2 -16 7 -54 10
-84 3 -30 10 -84 16 -120 5 -36 13 -83 16 -104 6 -44 7 -52 16 -87 4 -14 9
-36 12 -50 24 -122 93 -352 130 -435 7 -16 25 -59 40 -95 33 -78 126 -258 166
-320 16 -25 32 -52 36 -60 3 -8 14 -25 22 -36 9 -12 23 -32 31 -44 8 -13 49
-66 92 -119 269 -338 600 -571 1041 -732 42 -15 77 -25 77 -22 0 3 6 1 13 -5
7 -6 24 -13 37 -16 14 -3 63 -15 110 -26 118 -28 290 -59 370 -66 167 -14 231
-17 360 -16 166 0 429 13 530 26 19 2 67 7 105 11 39 3 81 8 95 10 14 3 50 7
80 10 30 3 66 7 80 9 14 3 45 7 70 10 25 3 56 8 70 11 13 2 42 7 65 11 22 3
87 15 145 25 133 25 145 28 200 40 25 6 56 13 70 15 39 8 140 33 202 50 l57
17 0 1296 0 1297 -387 -1 -387 0 -2 -990 c-1 -545 -2 -1009 -3 -1032 0 -45 -5
-48 -100 -67 -14 -3 -36 -7 -50 -10 -22 -5 -52 -11 -170 -32 -124 -22 -251
-28 -530 -29 -310 0 -372 5 -555 46 -180 40 -305 88 -466 180 -47 26 -96 57
-109 69 -12 11 -26 20 -29 20 -3 0 -18 10 -32 23 -15 12 -44 36 -65 52 -56 44
-180 171 -228 235 -99 130 -205 317 -251 445 -10 28 -22 55 -25 60 -8 11 -50
138 -55 168 -2 9 -6 21 -9 25 -6 10 -10 27 -36 157 -29 142 -37 199 -57 380
-16 148 -8 674 13 778 2 12 6 45 9 72 3 28 8 57 11 66 2 10 6 30 9 45 8 60 60
259 82 314 3 8 7 21 9 29 3 15 37 103 66 171 106 244 230 433 387 590 215 213
405 325 736 430 17 5 41 11 55 14 14 2 46 9 71 15 54 12 101 20 184 29 85 9
415 8 510 -2 44 -4 100 -10 125 -12 25 -2 52 -7 60 -10 8 -3 37 -8 65 -11 27
-3 58 -9 68 -14 9 -5 17 -8 17 -5 0 5 97 -17 190 -43 19 -6 60 -17 90 -24 138
-37 341 -120 462 -191 l44 -26 16 38 c19 43 70 175 123 317 21 55 43 114 50
130 7 17 21 53 31 80 9 28 21 55 26 61 5 6 1 17 -10 27 -33 29 -288 145 -410
186 -124 41 -319 94 -387 105 -11 2 -49 9 -85 16 -36 6 -76 14 -90 16 -14 2
-38 6 -55 9 -16 2 -48 7 -70 10 -22 3 -53 7 -70 10 -53 8 -228 18 -322 19 -51
1 -93 3 -93 6 0 6 -110 3 -117 -3 -2 -3 -17 -1 -33 3 -16 4 -31 6 -33 4z"/>
<path d="M17 12352 c-16 -3 -17 -186 -15 -2774 l3 -2770 365 0 c201 0 374 1
385 1 l20 1 0 2770 c0 1869 -3 2770 -10 2771 -40 2 -735 3 -748 1z"/>
<path d="M14550 12216 c-19 -6 -39 -12 -43 -13 -4 0 -36 -9 -71 -18 -61 -16
-64 -19 -60 -44 15 -84 68 -189 122 -237 36 -33 132 -89 162 -97 14 -3 36 -8
50 -12 51 -14 219 -13 281 1 129 30 238 113 293 223 15 28 24 51 22 51 -2 0 2
21 10 47 8 25 13 48 11 49 -3 3 -151 44 -208 58 -12 3 -20 -6 -27 -32 -31
-103 -112 -179 -201 -188 -30 -2 -56 -5 -60 -6 -16 -4 -79 17 -112 37 -40 26
-97 105 -106 147 -8 40 -23 48 -63 34z"/>
<path d="M6949 12060 c-5 -28 -2 -2195 2 -2202 4 -7 54 -10 130 -10 116 1 124
2 141 24 10 13 18 29 18 36 0 6 5 12 10 12 6 0 10 4 10 9 0 6 25 50 55 98 30
48 62 103 71 121 9 17 20 32 25 32 5 0 9 4 9 9 0 14 304 469 434 650 61 84
116 161 121 169 6 8 18 25 27 36 9 12 48 64 87 116 38 52 74 100 78 105 5 6
53 66 107 135 55 69 110 136 123 149 21 22 23 22 24 5 0 -11 1 -392 1 -849 0
-456 1 -837 4 -845 3 -13 27 -15 145 -13 77 1 144 4 147 8 12 12 10 2204 -2
2208 -6 2 -62 3 -124 3 l-113 -1 -52 -57 c-29 -31 -70 -77 -92 -103 -22 -26
-47 -56 -57 -67 -9 -10 -31 -37 -50 -60 -18 -23 -38 -46 -43 -52 -6 -6 -77
-96 -158 -201 -81 -104 -155 -199 -165 -211 -9 -11 -33 -43 -51 -70 -19 -27
-38 -51 -41 -54 -4 -3 -18 -21 -31 -42 -13 -20 -78 -112 -144 -205 -66 -92
-140 -199 -165 -238 -24 -38 -47 -72 -51 -75 -3 -3 -11 -15 -18 -28 -6 -12
-34 -57 -61 -99 l-49 -77 0 685 c0 376 -1 745 -1 819 l0 136 -150 -1 c-82 0
-150 -2 -151 -5z"/>
<path d="M12957 11554 c-1 -1 -38 -4 -82 -7 -90 -7 -242 -33 -283 -48 -15 -6
-27 -10 -27 -9 0 1 -8 -2 -17 -5 -9 -4 -15 -14 -13 -23 3 -18 16 -113 21 -149
1 -12 5 -35 9 -51 6 -29 8 -29 38 -19 18 5 39 12 47 15 8 3 22 6 30 7 8 1 29
5 45 9 108 22 296 28 375 12 111 -23 206 -104 236 -201 19 -64 25 -102 28
-193 l2 -74 -30 7 c-17 4 -42 8 -56 10 -14 2 -56 8 -95 13 -67 10 -251 8 -325
-3 -65 -9 -181 -45 -233 -71 -110 -56 -174 -119 -225 -224 -34 -72 -36 -80
-38 -190 -3 -175 35 -289 131 -385 50 -51 155 -111 212 -121 15 -3 30 -7 35
-10 51 -32 366 -36 623 -9 79 8 150 17 169 21 12 2 41 7 66 10 25 3 47 10 50
15 8 12 4 1137 -4 1189 -43 277 -215 442 -496 476 -45 5 -189 11 -193 8z m338
-955 c33 -7 62 -16 65 -20 7 -10 5 -487 -2 -494 -11 -12 -142 -21 -279 -20
-241 2 -336 39 -398 155 -20 37 -22 174 -4 218 33 81 145 155 254 168 30 3 56
8 58 10 9 9 252 -5 306 -17z"/>
<path d="M11068 11545 c-2 -2 -33 -6 -70 -9 -111 -12 -376 -63 -394 -77 -11
-9 -16 -2198 -5 -2200 3 -1 70 -2 149 -3 l142 -2 1 51 c0 27 0 177 0 333 l0
283 37 -20 c46 -25 164 -68 217 -78 53 -10 268 -10 325 1 83 15 155 45 259
107 79 47 182 170 234 279 33 69 74 214 86 305 9 68 8 279 -3 340 -37 225
-146 420 -295 530 -100 73 -235 130 -356 150 -37 7 -322 15 -327 10z m221
-269 c138 -12 247 -70 338 -179 26 -31 82 -138 86 -164 1 -10 6 -23 10 -29 18
-30 28 -296 14 -389 -19 -126 -53 -213 -116 -294 -32 -42 -112 -99 -161 -116
-3 -1 -12 -4 -20 -7 -50 -18 -95 -24 -175 -22 -130 3 -202 22 -306 83 l-64 37
-2 527 c-1 321 2 527 8 528 13 2 29 6 32 9 4 3 49 8 131 14 44 4 81 7 82 9 3
3 64 0 143 -7z"/>
<path d="M9259 11510 c-6 -25 -2 -1653 4 -1657 7 -4 122 -6 252 -4 l40 1 0
701 c0 385 2 703 5 707 3 4 167 7 365 7 l360 0 2 123 1 122 -36 1 c-218 3
-992 3 -993 -1z"/>
<path d="M15340 11512 c-60 -3 -70 -11 -155 -117 -22 -28 -43 -52 -46 -55 -3
-3 -41 -52 -84 -110 -44 -58 -83 -109 -87 -115 -65 -82 -243 -345 -383 -566
-75 -118 -139 -215 -143 -217 -4 -1 -6 263 -6 588 l1 590 -143 0 -144 0 0
-830 0 -830 73 -1 c77 -1 165 -1 183 0 7 1 31 34 55 74 88 150 374 602 406
642 5 6 42 59 82 120 41 60 78 114 83 120 5 5 45 62 91 126 45 63 90 123 100
133 9 10 17 22 17 27 0 5 5 9 10 9 7 0 11 -44 10 -122 -1 -237 -2 -583 -2
-598 1 -8 1 -131 1 -272 l0 -258 78 -1 c83 -1 167 -1 195 0 15 1 17 60 17 831
l0 830 -27 1 c-15 0 -49 1 -77 2 -27 1 -75 1 -105 -1z"/>
<path d="M10997 8674 c-1 -1 -36 -4 -77 -8 -41 -3 -88 -8 -105 -11 -16 -3 -43
-8 -60 -11 -95 -16 -157 -38 -165 -58 -4 -12 -5 -25 -1 -31 4 -5 9 -28 11 -50
3 -48 8 -79 10 -82 3 -3 7 -31 9 -59 1 -12 4 -14 14 -6 6 6 17 11 22 11 6 0
30 5 55 11 25 6 59 13 75 15 17 2 30 4 30 5 0 10 312 17 345 8 8 -3 32 -12 54
-21 21 -9 41 -17 45 -17 18 0 96 -89 117 -134 29 -63 37 -107 38 -211 1 -89 5
-86 -79 -71 -88 16 -145 21 -245 21 -180 0 -310 -28 -432 -92 -59 -31 -163
-130 -192 -182 -53 -96 -67 -281 -31 -411 10 -36 21 -67 24 -70 4 -3 12 -16
19 -30 30 -59 80 -117 128 -147 52 -33 167 -79 219 -88 11 -2 38 -7 60 -11 47
-8 300 -9 395 -1 79 7 186 17 220 22 14 2 50 6 80 9 30 4 72 11 93 17 l37 10
-1 567 c0 312 -5 592 -10 622 -53 319 -248 475 -607 483 -51 1 -94 2 -95 1z
m325 -948 c15 -2 42 -9 61 -15 l34 -12 0 -245 c0 -134 -3 -247 -7 -249 -28
-17 -373 -27 -445 -13 -53 11 -129 39 -162 61 -56 38 -93 136 -88 230 8 124
96 207 256 241 60 13 280 14 351 2z"/>
<path d="M12877 8674 c-1 -1 -31 -4 -67 -7 -36 -3 -92 -13 -125 -22 -65 -17
-208 -83 -242 -112 -11 -10 -37 -31 -57 -48 -20 -16 -56 -55 -79 -85 -23 -30
-45 -57 -48 -60 -12 -10 -78 -141 -89 -178 -6 -20 -14 -44 -17 -52 -7 -18 -9
-24 -27 -120 -15 -76 -16 -331 -2 -395 4 -16 11 -49 17 -73 52 -234 191 -412
400 -514 31 -15 70 -30 85 -34 16 -4 34 -10 39 -13 6 -4 25 -8 44 -10 19 -2
44 -7 56 -11 12 -4 86 -7 166 -5 132 3 171 6 237 21 13 3 43 7 65 11 23 3 62
13 87 23 49 19 50 22 37 110 -7 55 -26 153 -30 156 -1 2 -29 -6 -62 -17 -33
-11 -69 -22 -80 -24 -11 -2 -40 -7 -65 -11 -51 -9 -247 -9 -299 0 -205 34
-345 186 -385 418 -13 73 -14 309 -1 358 3 14 9 38 12 55 8 44 53 152 69 166
8 6 14 16 14 22 0 23 106 111 166 138 86 39 112 44 249 43 135 0 171 -6 267
-39 l66 -22 8 26 c4 14 8 31 10 36 9 36 25 96 35 132 14 53 8 69 -28 76 -15 3
-35 7 -43 10 -8 2 -33 9 -55 15 -67 18 -167 32 -263 35 -35 2 -64 2 -65 1z"/>
<path d="M16137 8674 c-1 -1 -56 -4 -122 -8 -121 -6 -159 -10 -250 -22 -111
-14 -146 -21 -157 -32 -7 -7 -14 -493 -7 -528 1 -5 1 -13 0 -19 -2 -12 -2
-610 0 -621 1 -5 1 -13 0 -19 -2 -9 -2 -250 -1 -388 0 -33 4 -47 13 -46 6 2
37 -2 67 -9 58 -11 109 -18 230 -30 100 -9 463 -9 520 1 25 5 61 10 80 13 115
16 247 76 319 146 95 92 137 195 139 340 1 121 -27 209 -91 279 -33 37 -140
111 -166 115 -33 6 -30 22 8 47 74 49 124 109 151 179 17 45 25 121 19 185
-16 163 -119 290 -288 354 -55 20 -71 25 -121 35 -14 3 -32 7 -40 9 -33 9
-295 26 -303 19z m208 -255 c103 -16 172 -46 214 -94 88 -100 45 -270 -83
-329 -76 -35 -142 -43 -366 -45 l-219 -2 0 235 0 235 27 3 c63 8 372 6 427 -3z
m75 -703 c14 -4 36 -9 50 -12 119 -25 202 -127 203 -248 1 -158 -111 -250
-333 -273 -61 -6 -344 -5 -375 1 -11 3 -32 5 -47 5 l-26 1 -1 271 0 271 252
-5 c139 -2 263 -7 277 -11z"/>
<path d="M17987 8674 c-1 -1 -29 -6 -62 -9 -86 -10 -275 -76 -275 -97 0 -4 -6
-8 -12 -8 -22 -1 -142 -100 -183 -152 -109 -136 -177 -323 -190 -520 -3 -37
-5 -71 -6 -75 -1 -4 -1 -10 0 -13 1 -3 4 -47 6 -97 3 -51 10 -105 15 -119 6
-15 8 -29 6 -32 -3 -2 1 -20 9 -38 8 -19 14 -37 15 -39 0 -3 1 -7 1 -10 1 -3
3 -9 4 -15 1 -5 3 -11 5 -12 1 -2 3 -10 5 -18 6 -32 82 -163 129 -223 51 -65
136 -136 217 -181 178 -99 438 -118 638 -45 31 12 64 23 74 26 9 3 17 9 17 14
0 5 9 9 20 9 11 0 20 4 20 9 0 5 10 13 22 17 19 6 161 142 196 187 43 57 121
233 136 307 3 14 7 36 10 50 7 29 17 156 18 220 1 38 -2 75 -16 180 -5 33 -18
96 -23 110 -4 8 -7 17 -8 20 -28 110 -131 281 -213 354 -105 93 -233 160 -347
181 -73 14 -221 26 -228 19z m196 -286 c33 -10 74 -29 91 -41 101 -70 186
-200 212 -324 1 -6 7 -33 12 -60 24 -108 7 -351 -32 -458 -17 -49 -41 -95 -48
-95 -4 0 -8 -7 -8 -15 0 -25 -111 -132 -165 -159 -140 -70 -325 -59 -453 26
-52 34 -132 126 -132 152 0 9 -4 16 -10 16 -5 0 -13 12 -16 28 -4 15 -10 32
-14 37 -7 9 -36 122 -40 155 -1 8 -3 70 -4 137 -5 233 45 386 164 504 87 85
167 116 304 117 52 0 99 -6 139 -20z"/>
<path d="M9138 8665 c-2 -1 -34 -5 -73 -8 -89 -8 -195 -27 -393 -70 -8 -2 -17
-8 -20 -14 -4 -6 -7 -496 -6 -1090 l0 -1078 150 -3 149 -2 -1 312 c0 172 1
316 3 320 2 3 23 -4 47 -17 25 -13 82 -36 128 -51 73 -24 101 -27 228 -30 87
-1 150 2 158 8 6 6 12 8 12 5 0 -8 94 19 155 44 30 12 55 26 55 31 0 4 5 8 11
8 14 0 87 51 126 88 109 105 205 303 228 467 4 28 9 61 11 75 6 38 5 251 -1
280 -3 14 -8 41 -11 60 -28 184 -131 371 -268 488 -84 71 -240 144 -336 158
-19 2 -46 7 -60 11 -23 5 -287 12 -292 8z m148 -266 c291 -6 480 -191 509
-499 4 -36 8 -71 10 -77 3 -7 1 -13 -3 -13 -4 0 -7 -35 -7 -78 -2 -279 -126
-469 -344 -527 -44 -11 -186 -12 -253 -1 -47 7 -161 54 -208 86 l-45 30 0 524
-1 525 46 11 c25 6 78 12 119 15 40 2 76 7 79 9 2 3 8 4 12 1 4 -2 42 -5 86
-6z"/>
<path d="M6933 8627 c-4 -6 -7 -1310 -4 -1607 l1 -55 62 2 c35 1 101 2 148 2
l86 1 -1 383 c-1 210 0 385 2 389 5 10 112 -60 143 -92 3 -3 32 -28 64 -55 61
-51 247 -233 301 -296 17 -19 50 -59 75 -89 25 -30 51 -62 58 -70 6 -8 38 -50
70 -93 l58 -78 168 -1 c92 0 169 2 172 5 5 5 -76 135 -101 163 -5 6 -17 22
-25 34 -8 12 -26 37 -40 55 -14 17 -36 47 -50 65 -29 39 -69 88 -90 111 -8 9
-46 51 -85 95 -103 116 -207 216 -325 313 -36 29 -68 56 -72 60 -4 4 65 81
155 172 568 578 577 589 543 590 -17 0 -95 1 -174 1 l-142 0 -57 -64 c-85 -93
-631 -638 -640 -638 -4 0 -8 158 -8 351 l0 352 -143 1 c-79 1 -146 -3 -149 -7z"/>
<path d="M13713 8632 l-23 -3 0 -830 0 -829 85 -1 c47 0 101 -1 120 -1 19 0
41 1 49 1 11 1 57 71 201 310 38 63 60 97 64 101 4 3 15 21 25 40 11 19 22 37
26 40 3 3 21 30 40 60 19 30 38 57 42 58 5 2 8 10 8 18 0 8 5 14 10 14 6 0 10
5 10 12 0 6 11 26 25 44 14 18 25 37 25 42 0 6 4 12 8 14 5 2 28 32 52 68 24
36 47 67 52 68 4 2 6 8 2 13 -3 5 -1 9 3 9 5 0 17 15 28 33 10 17 23 37 27 42
5 6 45 60 89 120 43 61 87 119 97 130 17 20 17 19 22 -25 3 -25 3 -46 0 -48
-3 -1 -4 -19 -3 -40 3 -33 4 -185 2 -222 -1 -23 0 -389 2 -445 1 -44 0 -154
-2 -195 -1 -21 0 -188 1 -224 1 -38 2 -39 47 -38 21 0 84 1 141 1 l102 1 0
830 0 830 -133 0 c-154 0 -127 16 -270 -165 -48 -60 -93 -117 -101 -125 -7 -8
-22 -28 -32 -45 -10 -16 -27 -39 -36 -49 -10 -11 -30 -38 -45 -60 -15 -23 -38
-54 -50 -71 -13 -16 -27 -34 -31 -40 -4 -5 -43 -64 -87 -130 -44 -66 -83 -121
-87 -123 -5 -2 -8 -8 -8 -13 0 -6 -19 -38 -42 -72 -24 -34 -45 -66 -48 -72
-19 -38 -133 -215 -137 -211 -2 2 -4 267 -4 589 l0 586 -122 3 c-67 2 -132 2
-144 0z"/>
</g>
</svg>
