<svg width="120" height="40" viewBox="0 0 120 40" fill="none" xmlns="http://www.w3.org/2000/svg">
<g clip-path="url(#clip0_418_1126)">
<path d="M43.42 18.45V4.59H45.32V14.85C45.7467 14.1433 46.2667 13.3367 46.88 12.43C47.5067 11.5233 48.1667 10.6033 48.86 9.67C49.5667 8.72334 50.2733 7.81 50.98 6.93C51.7 6.03667 52.3733 5.25667 53 4.59H54.54V18.45H52.64V7.63C52.2667 8.05667 51.86 8.55 51.42 9.11C50.98 9.67 50.5267 10.27 50.06 10.91C49.5933 11.5367 49.12 12.19 48.64 12.87C48.1733 13.55 47.72 14.2233 47.28 14.89C46.84 15.5433 46.4267 16.1767 46.04 16.79C45.6667 17.4033 45.3333 17.9567 45.04 18.45H43.42Z" fill="white"/>
<path d="M64.2908 9.61H59.7108V18.45H57.8508V8.05H64.2908V9.61Z" fill="white"/>
<path d="M73.4302 13.27C73.4302 12.0567 73.1302 11.1233 72.5302 10.47C71.9302 9.81667 71.1302 9.49 70.1302 9.49C69.5702 9.49 69.1302 9.51 68.8102 9.55C68.5035 9.59 68.2568 9.63667 68.0702 9.69V16.25C68.2968 16.4367 68.6235 16.6167 69.0502 16.79C69.4768 16.9633 69.9435 17.05 70.4502 17.05C70.9835 17.05 71.4368 16.9567 71.8102 16.77C72.1968 16.57 72.5102 16.3033 72.7502 15.97C72.9902 15.6233 73.1635 15.2233 73.2702 14.77C73.3768 14.3033 73.4302 13.8033 73.4302 13.27ZM75.3702 13.27C75.3702 14.0567 75.2635 14.7833 75.0502 15.45C74.8502 16.1167 74.5502 16.69 74.1502 17.17C73.7502 17.65 73.2568 18.0233 72.6702 18.29C72.0968 18.5567 71.4368 18.69 70.6902 18.69C70.0902 18.69 69.5568 18.61 69.0902 18.45C68.6368 18.29 68.2968 18.1367 68.0702 17.99V22.15H66.2102V8.37C66.6502 8.26334 67.1968 8.15 67.8502 8.03C68.5168 7.89667 69.2835 7.83 70.1502 7.83C70.9502 7.83 71.6702 7.95667 72.3102 8.21C72.9502 8.46334 73.4968 8.82334 73.9502 9.29C74.4035 9.75667 74.7502 10.33 74.9902 11.01C75.2435 11.6767 75.3702 12.43 75.3702 13.27Z" fill="white"/>
<path d="M81.5075 17.11C81.9475 17.11 82.3342 17.1033 82.6675 17.09C83.0142 17.0633 83.3008 17.0233 83.5275 16.97V13.87C83.3942 13.8033 83.1742 13.75 82.8675 13.71C82.5742 13.6567 82.2142 13.63 81.7875 13.63C81.5075 13.63 81.2075 13.65 80.8875 13.69C80.5808 13.73 80.2942 13.8167 80.0275 13.95C79.7742 14.07 79.5608 14.2433 79.3875 14.47C79.2142 14.6833 79.1275 14.97 79.1275 15.33C79.1275 15.9967 79.3408 16.4633 79.7675 16.73C80.1942 16.9833 80.7742 17.11 81.5075 17.11ZM81.3475 7.79C82.0942 7.79 82.7208 7.89 83.2275 8.09C83.7475 8.27667 84.1608 8.55 84.4675 8.91C84.7875 9.25667 85.0142 9.67667 85.1475 10.17C85.2808 10.65 85.3475 11.1833 85.3475 11.77V18.27C85.1875 18.2967 84.9608 18.3367 84.6675 18.39C84.3875 18.43 84.0675 18.47 83.7075 18.51C83.3475 18.55 82.9542 18.5833 82.5275 18.61C82.1142 18.65 81.7008 18.67 81.2875 18.67C80.7008 18.67 80.1608 18.61 79.6675 18.49C79.1742 18.37 78.7475 18.1833 78.3875 17.93C78.0275 17.6633 77.7475 17.3167 77.5475 16.89C77.3475 16.4633 77.2475 15.95 77.2475 15.35C77.2475 14.7767 77.3608 14.2833 77.5875 13.87C77.8275 13.4567 78.1475 13.1233 78.5475 12.87C78.9475 12.6167 79.4142 12.43 79.9475 12.31C80.4808 12.19 81.0408 12.13 81.6275 12.13C81.8142 12.13 82.0075 12.1433 82.2075 12.17C82.4075 12.1833 82.5942 12.21 82.7675 12.25C82.9542 12.2767 83.1142 12.3033 83.2475 12.33C83.3808 12.3567 83.4742 12.3767 83.5275 12.39V11.87C83.5275 11.5633 83.4942 11.2633 83.4275 10.97C83.3608 10.6633 83.2408 10.3967 83.0675 10.17C82.8942 9.93 82.6542 9.74334 82.3475 9.61C82.0542 9.46334 81.6675 9.39 81.1875 9.39C80.5742 9.39 80.0342 9.43667 79.5675 9.53C79.1142 9.61 78.7742 9.69667 78.5475 9.79L78.3275 8.25C78.5675 8.14334 78.9675 8.04334 79.5275 7.95C80.0875 7.84333 80.6942 7.79 81.3475 7.79Z" fill="white"/>
<path d="M97.1767 8.05V18.45H95.3767V10.53C94.9767 11.0367 94.5367 11.63 94.0567 12.31C93.5767 12.99 93.0967 13.6967 92.6167 14.43C92.1367 15.15 91.6767 15.8633 91.2367 16.57C90.7967 17.2767 90.4167 17.9033 90.0967 18.45H88.4367V8.05H90.2367V15.53C90.5834 14.9567 90.9767 14.33 91.4167 13.65C91.8567 12.9567 92.3101 12.2767 92.7767 11.61C93.2567 10.93 93.73 10.2833 94.1967 9.67C94.6767 9.04334 95.1234 8.50334 95.5367 8.05H97.1767ZM92.8167 6.37C91.9767 6.37 91.2901 6.15667 90.7567 5.73C90.2367 5.30334 89.9234 4.71 89.8167 3.95L91.2367 3.57C91.3434 3.99667 91.5234 4.34334 91.7767 4.61C92.0301 4.87667 92.3767 5.01 92.8167 5.01C93.2567 5.01 93.6034 4.87667 93.8567 4.61C94.1101 4.34334 94.2901 3.99667 94.3967 3.57L95.7967 3.95C95.6901 4.71 95.3767 5.30334 94.8567 5.73C94.3367 6.15667 93.6567 6.37 92.8167 6.37Z" fill="white"/>
<path d="M47.1 30.79C47.5133 31.0833 47.96 31.4567 48.44 31.91C48.92 32.35 49.3867 32.83 49.84 33.35C50.3067 33.87 50.74 34.4033 51.14 34.95C51.54 35.4833 51.88 35.9833 52.16 36.45H49.96C49.6667 35.9967 49.32 35.5367 48.92 35.07C48.5333 34.59 48.1267 34.13 47.7 33.69C47.2733 33.25 46.84 32.8433 46.4 32.47C45.96 32.0967 45.5467 31.7833 45.16 31.53V36.45H43.3V26.05H45.16V30.51C45.48 30.2033 45.8467 29.85 46.26 29.45C46.6733 29.0367 47.0867 28.6233 47.5 28.21C47.9267 27.7833 48.32 27.3833 48.68 27.01C49.04 26.6233 49.3333 26.3033 49.56 26.05H51.72C51.4267 26.37 51.08 26.7367 50.68 27.15C50.2933 27.55 49.8867 27.9633 49.46 28.39C49.0467 28.8167 48.6333 29.2433 48.22 29.67C47.8067 30.0833 47.4333 30.4567 47.1 30.79Z" fill="white"/>
<path d="M61.2622 31.27C61.2622 30.0567 60.9622 29.1233 60.3622 28.47C59.7622 27.8167 58.9622 27.49 57.9622 27.49C57.4022 27.49 56.9622 27.51 56.6422 27.55C56.3355 27.59 56.0889 27.6367 55.9022 27.69V34.25C56.1289 34.4367 56.4555 34.6167 56.8822 34.79C57.3089 34.9633 57.7755 35.05 58.2822 35.05C58.8155 35.05 59.2689 34.9567 59.6422 34.77C60.0289 34.57 60.3422 34.3033 60.5822 33.97C60.8222 33.6233 60.9955 33.2233 61.1022 32.77C61.2089 32.3033 61.2622 31.8033 61.2622 31.27ZM63.2022 31.27C63.2022 32.0567 63.0955 32.7833 62.8822 33.45C62.6822 34.1167 62.3822 34.69 61.9822 35.17C61.5822 35.65 61.0889 36.0233 60.5022 36.29C59.9289 36.5567 59.2689 36.69 58.5222 36.69C57.9222 36.69 57.3889 36.61 56.9222 36.45C56.4689 36.29 56.1289 36.1367 55.9022 35.99V40.15H54.0422V26.37C54.4822 26.2633 55.0289 26.15 55.6822 26.03C56.3489 25.8967 57.1155 25.83 57.9822 25.83C58.7822 25.83 59.5022 25.9567 60.1422 26.21C60.7822 26.4633 61.3289 26.8233 61.7822 27.29C62.2355 27.7567 62.5822 28.33 62.8222 29.01C63.0755 29.6767 63.2022 30.43 63.2022 31.27Z" fill="white"/>
<path d="M69.3395 35.11C69.7795 35.11 70.1662 35.1033 70.4995 35.09C70.8462 35.0633 71.1329 35.0233 71.3595 34.97V31.87C71.2262 31.8033 71.0062 31.75 70.6995 31.71C70.4062 31.6567 70.0462 31.63 69.6195 31.63C69.3395 31.63 69.0395 31.65 68.7195 31.69C68.4129 31.73 68.1262 31.8167 67.8595 31.95C67.6062 32.07 67.3929 32.2433 67.2195 32.47C67.0462 32.6833 66.9595 32.97 66.9595 33.33C66.9595 33.9967 67.1729 34.4633 67.5995 34.73C68.0262 34.9833 68.6062 35.11 69.3395 35.11ZM69.1795 25.79C69.9262 25.79 70.5529 25.89 71.0595 26.09C71.5795 26.2767 71.9929 26.55 72.2995 26.91C72.6195 27.2567 72.8462 27.6767 72.9795 28.17C73.1129 28.65 73.1795 29.1833 73.1795 29.77V36.27C73.0195 36.2967 72.7929 36.3367 72.4995 36.39C72.2195 36.43 71.8995 36.47 71.5395 36.51C71.1795 36.55 70.7862 36.5833 70.3595 36.61C69.9462 36.65 69.5329 36.67 69.1195 36.67C68.5329 36.67 67.9929 36.61 67.4995 36.49C67.0062 36.37 66.5795 36.1833 66.2195 35.93C65.8595 35.6633 65.5795 35.3167 65.3795 34.89C65.1795 34.4633 65.0795 33.95 65.0795 33.35C65.0795 32.7767 65.1929 32.2833 65.4195 31.87C65.6595 31.4567 65.9795 31.1233 66.3795 30.87C66.7795 30.6167 67.2462 30.43 67.7795 30.31C68.3129 30.19 68.8729 30.13 69.4595 30.13C69.6462 30.13 69.8395 30.1433 70.0395 30.17C70.2395 30.1833 70.4262 30.21 70.5995 30.25C70.7862 30.2767 70.9462 30.3033 71.0795 30.33C71.2129 30.3567 71.3062 30.3767 71.3595 30.39V29.87C71.3595 29.5633 71.3262 29.2633 71.2595 28.97C71.1929 28.6633 71.0729 28.3967 70.8995 28.17C70.7262 27.93 70.4862 27.7433 70.1795 27.61C69.8862 27.4633 69.4995 27.39 69.0195 27.39C68.4062 27.39 67.8662 27.4367 67.3995 27.53C66.9462 27.61 66.6062 27.6967 66.3795 27.79L66.1595 26.25C66.3995 26.1433 66.7995 26.0433 67.3595 25.95C67.9195 25.8433 68.5262 25.79 69.1795 25.79Z" fill="white"/>
<path d="M80.7887 36.69C79.9487 36.69 79.2087 36.5567 78.5687 36.29C77.9421 36.0233 77.4087 35.65 76.9688 35.17C76.5421 34.69 76.2221 34.1233 76.0088 33.47C75.7954 32.8033 75.6888 32.07 75.6888 31.27C75.6888 30.47 75.8021 29.7367 76.0287 29.07C76.2687 28.4033 76.6021 27.83 77.0287 27.35C77.4554 26.8567 77.9754 26.4767 78.5888 26.21C79.2154 25.93 79.9087 25.79 80.6687 25.79C81.1354 25.79 81.6021 25.83 82.0687 25.91C82.5354 25.99 82.9821 26.1167 83.4088 26.29L82.9887 27.87C82.7087 27.7367 82.3821 27.63 82.0088 27.55C81.6488 27.47 81.2621 27.43 80.8487 27.43C79.8087 27.43 79.0088 27.7567 78.4488 28.41C77.9021 29.0633 77.6288 30.0167 77.6288 31.27C77.6288 31.83 77.6887 32.3433 77.8087 32.81C77.9421 33.2767 78.1421 33.6767 78.4088 34.01C78.6888 34.3433 79.0421 34.6033 79.4688 34.79C79.8954 34.9633 80.4154 35.05 81.0287 35.05C81.5221 35.05 81.9688 35.0033 82.3688 34.91C82.7688 34.8167 83.0821 34.7167 83.3087 34.61L83.5687 36.17C83.4621 36.2367 83.3087 36.3033 83.1087 36.37C82.9087 36.4233 82.6821 36.47 82.4287 36.51C82.1754 36.5633 81.9021 36.6033 81.6087 36.63C81.3287 36.67 81.0554 36.69 80.7887 36.69Z" fill="white"/>
<path d="M94.3056 26.05V36.45H92.5056V28.53C92.1056 29.0367 91.6656 29.63 91.1856 30.31C90.7056 30.99 90.2256 31.6967 89.7456 32.43C89.2656 33.15 88.8056 33.8633 88.3656 34.57C87.9256 35.2767 87.5456 35.9033 87.2256 36.45H85.5656V26.05H87.3656V33.53C87.7123 32.9567 88.1056 32.33 88.5456 31.65C88.9856 30.9567 89.439 30.2767 89.9056 29.61C90.3856 28.93 90.859 28.2833 91.3256 27.67C91.8056 27.0433 92.2523 26.5033 92.6656 26.05H94.3056Z" fill="white"/>
<path d="M99.3192 35.05C99.3992 35.0633 99.5126 35.0767 99.6592 35.09C99.8059 35.1033 99.9726 35.1167 100.159 35.13C100.346 35.13 100.539 35.1367 100.739 35.15C100.953 35.15 101.153 35.15 101.339 35.15C101.726 35.15 102.093 35.1233 102.439 35.07C102.799 35.0167 103.106 34.9233 103.359 34.79C103.626 34.6567 103.833 34.4833 103.979 34.27C104.139 34.0433 104.219 33.7567 104.219 33.41C104.219 33.0767 104.146 32.8033 103.999 32.59C103.866 32.3633 103.679 32.1833 103.439 32.05C103.199 31.9167 102.913 31.8233 102.579 31.77C102.259 31.7167 101.913 31.69 101.539 31.69H99.3192V35.05ZM101.299 30.31C101.659 30.31 101.986 30.29 102.279 30.25C102.586 30.1967 102.846 30.11 103.059 29.99C103.286 29.87 103.459 29.71 103.579 29.51C103.713 29.31 103.779 29.0567 103.779 28.75C103.779 28.43 103.699 28.1767 103.539 27.99C103.379 27.8033 103.166 27.6633 102.899 27.57C102.646 27.4633 102.353 27.3967 102.019 27.37C101.699 27.33 101.373 27.31 101.039 27.31C100.733 27.31 100.419 27.3167 100.099 27.33C99.7926 27.3433 99.5326 27.3567 99.3192 27.37V30.31H101.299ZM101.259 36.63C100.473 36.63 99.7459 36.59 99.0792 36.51C98.4125 36.4433 97.8859 36.3633 97.4992 36.27V26.15C97.8859 26.0567 98.4125 25.9767 99.0792 25.91C99.7459 25.83 100.473 25.79 101.259 25.79C101.806 25.79 102.339 25.8367 102.859 25.93C103.379 26.0233 103.839 26.1833 104.239 26.41C104.639 26.6233 104.959 26.9233 105.199 27.31C105.453 27.6833 105.579 28.15 105.579 28.71C105.579 29.2167 105.453 29.65 105.199 30.01C104.946 30.37 104.606 30.65 104.179 30.85C104.753 31.05 105.206 31.35 105.539 31.75C105.886 32.1367 106.059 32.6833 106.059 33.39C106.059 34.0167 105.933 34.5367 105.679 34.95C105.439 35.3633 105.099 35.6967 104.659 35.95C104.233 36.2033 103.726 36.3767 103.139 36.47C102.553 36.5767 101.926 36.63 101.259 36.63Z" fill="white"/>
<path d="M117.636 31.25C117.636 32.0767 117.516 32.8233 117.276 33.49C117.036 34.1567 116.696 34.73 116.256 35.21C115.83 35.69 115.316 36.0633 114.716 36.33C114.116 36.5833 113.463 36.71 112.756 36.71C112.05 36.71 111.396 36.5833 110.796 36.33C110.196 36.0633 109.676 35.69 109.236 35.21C108.81 34.73 108.476 34.1567 108.236 33.49C107.996 32.8233 107.876 32.0767 107.876 31.25C107.876 30.4367 107.996 29.6967 108.236 29.03C108.476 28.35 108.81 27.77 109.236 27.29C109.676 26.81 110.196 26.4433 110.796 26.19C111.396 25.9233 112.05 25.79 112.756 25.79C113.463 25.79 114.116 25.9233 114.716 26.19C115.316 26.4433 115.83 26.81 116.256 27.29C116.696 27.77 117.036 28.35 117.276 29.03C117.516 29.6967 117.636 30.4367 117.636 31.25ZM115.696 31.25C115.696 30.0767 115.43 29.15 114.896 28.47C114.376 27.7767 113.663 27.43 112.756 27.43C111.85 27.43 111.13 27.7767 110.596 28.47C110.076 29.15 109.816 30.0767 109.816 31.25C109.816 32.4233 110.076 33.3567 110.596 34.05C111.13 34.73 111.85 35.07 112.756 35.07C113.663 35.07 114.376 34.73 114.896 34.05C115.43 33.3567 115.696 32.4233 115.696 31.25Z" fill="white"/>
<path d="M0 2.8H4.85V37.45H0V2.8Z" fill="white"/>
<path d="M34.5777 20.4H39.4277V36.6C39.0277 36.7333 38.4444 36.8833 37.6777 37.05C36.9444 37.2167 36.0777 37.3833 35.0777 37.55C34.1111 37.7167 33.0444 37.85 31.8777 37.95C30.7111 38.0833 29.5277 38.15 28.3277 38.15C25.8944 38.15 23.6777 37.75 21.6777 36.95C19.6777 36.15 17.9611 34.9833 16.5277 33.45C15.0944 31.9167 13.9777 30.0333 13.1777 27.8C12.4111 25.5667 12.0277 23 12.0277 20.1C12.0277 17.2 12.4611 14.6333 13.3277 12.4C14.2277 10.1333 15.4277 8.23334 16.9277 6.7C18.4277 5.16667 20.1777 4 22.1777 3.2C24.2111 2.4 26.3777 2 28.6777 2C30.2444 2 31.6277 2.1 32.8277 2.3C34.0611 2.5 35.1111 2.73333 35.9777 3C36.8444 3.26667 37.5444 3.53333 38.0777 3.8C38.6444 4.06667 39.0277 4.26667 39.2277 4.4L37.6777 8.45C36.7111 7.81667 35.4277 7.3 33.8277 6.9C32.2277 6.46667 30.5944 6.25 28.9277 6.25C27.1611 6.25 25.5444 6.56667 24.0777 7.2C22.6444 7.83333 21.4111 8.75 20.3777 9.95C19.3777 11.15 18.5944 12.6167 18.0277 14.35C17.4611 16.05 17.1777 17.9667 17.1777 20.1C17.1777 22.1667 17.4111 24.05 17.8777 25.75C18.3777 27.45 19.1111 28.9167 20.0777 30.15C21.0777 31.35 22.2944 32.2833 23.7277 32.95C25.1944 33.6167 26.9111 33.95 28.8777 33.95C30.2777 33.95 31.4611 33.8833 32.4277 33.75C33.4277 33.5833 34.1444 33.4333 34.5777 33.3V20.4Z" fill="white"/>
</g>
<defs>
<clipPath id="clip0_418_1126">
<rect width="120" height="40" fill="white"/>
</clipPath>
</defs>
</svg>
